<svg xmlns="http://www.w3.org/2000/svg" width="26.941" height="40.288" viewBox="0 0 26.941 40.288">
  <g id="LB_logo_hero" data-name="LB logo hero" transform="translate(-52.645 -35)">
    <g id="loggaaaaaa" transform="translate(52.645 35)">
      <g id="Group_23" data-name="Group 23">
        <path id="Path_6" data-name="Path 6" d="M0,40.288V0H3.267V37.232H26.941v3.021H0Z" fill="#f1f1f1"/>
      </g>
      <g id="Group_24" data-name="Group 24" transform="translate(6.849)">
        <path id="Path_7" data-name="Path 7" d="M1.95,0h9.1c5.479,0,9.87,3.231,9.87,8.606A7.872,7.872,0,0,1,15.754,16.3a8.4,8.4,0,0,1,6.287,8.325c0,5.9-4.6,9.062-10.432,9.062H1.95Zm9.1,2.669H4.83V15h6.252c3.653,0,6.884-1.826,6.884-6.147C17.932,4.6,14.735,2.669,11.047,2.669Zm.562,15H4.83V30.98h6.779c3.969,0,7.411-2.037,7.411-6.6S15.543,17.668,11.609,17.668Z" transform="translate(-1.95)" fill="#f1f1f1"/>
      </g>
      <path id="Path_8" data-name="Path 8" d="M1.98,9.55" transform="translate(4.975 23.994)" fill="#f1f1f1"/>
      <path id="Path_9" data-name="Path 9" d="M.93,10.6" transform="translate(2.337 26.632)" fill="#f1f1f1"/>
    </g>
  </g>
</svg>
