<svg xmlns="http://www.w3.org/2000/svg" width="43.313" height="43.304" viewBox="0 0 43.313 43.304">
  <path id="instagram-brands" d="M21.586,42.374a11.1,11.1,0,1,0,11.1,11.1A11.085,11.085,0,0,0,21.586,42.374Zm0,18.321A7.218,7.218,0,1,1,28.8,53.477a7.231,7.231,0,0,1-7.218,7.218ZM35.733,41.92a2.59,2.59,0,1,1-2.59-2.59A2.584,2.584,0,0,1,35.733,41.92Zm7.353,2.628c-.164-3.469-.957-6.542-3.5-9.073s-5.6-3.324-9.073-3.5c-3.575-.2-14.291-.2-17.866,0-3.459.164-6.532.957-9.073,3.488s-3.324,5.6-3.5,9.073c-.2,3.575-.2,14.291,0,17.866.164,3.469.957,6.542,3.5,9.073s5.6,3.324,9.073,3.5c3.575.2,14.291.2,17.866,0,3.469-.164,6.542-.957,9.073-3.5s3.324-5.6,3.5-9.073C43.289,58.83,43.289,48.124,43.086,44.548ZM38.467,66.241a7.308,7.308,0,0,1-4.116,4.116c-2.851,1.131-9.614.87-12.764.87s-9.924.251-12.764-.87a7.308,7.308,0,0,1-4.116-4.116c-1.131-2.851-.87-9.614-.87-12.764s-.251-9.924.87-12.764A7.308,7.308,0,0,1,8.822,36.6c2.851-1.131,9.614-.87,12.764-.87s9.924-.251,12.764.87a7.308,7.308,0,0,1,4.116,4.116c1.131,2.851.87,9.614.87,12.764S39.6,63.4,38.467,66.241Z" transform="translate(0.075 -31.825)" fill="#639181"/>
</svg>
